<svg width="28" height="16" viewBox="0 0 28 16" fill="none" xmlns="http://www.w3.org/2000/svg">
<path d="M26.952 1.12029C27.1417 0.498514 26.952 0.0425415 26.0551 0.0425415H23.0839C22.3279 0.0425415 21.9824 0.437005 21.7928 0.870245C21.7928 0.870245 20.2821 4.50599 18.1415 6.8634C17.4505 7.54937 17.1348 7.76599 16.7582 7.76599C16.5698 7.76599 16.2962 7.54937 16.2962 6.92759V1.12029C16.2962 0.374158 16.078 0.0425415 15.448 0.0425415H10.7792C10.3078 0.0425415 10.0232 0.387529 10.0232 0.716471C10.0232 1.42249 11.0936 1.58563 11.2033 3.57532V7.89168C11.2033 8.83705 11.0312 9.00955 10.6519 9.00955C9.64524 9.00955 7.19568 5.36043 5.74194 1.18314C5.45878 0.371483 5.1729 0.0438792 4.41419 0.0438792H1.44438C0.594893 0.0438792 0.425537 0.438342 0.425537 0.871582C0.425537 1.64981 1.43219 5.50083 5.11465 10.5941C7.56962 14.072 11.0258 15.9574 14.1745 15.9574C16.0618 15.9574 16.2948 15.5389 16.2948 14.8168V12.188C16.2948 11.3509 16.475 11.1824 17.0725 11.1824C17.5115 11.1824 18.2675 11.4017 20.0301 13.0772C22.0434 15.0642 22.3767 15.9561 23.508 15.9561H26.4778C27.3259 15.9561 27.75 15.5376 27.5061 14.7112C27.2392 13.8888 26.2773 12.6921 25.001 11.276C24.3073 10.4684 23.2709 9.59923 22.9552 9.16466C22.5149 8.60439 22.6422 8.35701 22.9552 7.85959C22.9566 7.86093 26.5754 2.83052 26.952 1.12029Z" fill="#727272"/>
</svg>
