<svg width="12" height="24" viewBox="0 0 12 24" fill="none" xmlns="http://www.w3.org/2000/svg">
<path d="M0.466233 12.763H3.03172V23.3246C3.03172 23.5331 3.20068 23.7021 3.4092 23.7021H7.75907C7.9676 23.7021 8.13656 23.5331 8.13656 23.3246V12.8127H11.0858C11.2776 12.8127 11.4389 12.6688 11.4608 12.4783L11.9087 8.59006C11.921 8.48308 11.8871 8.37594 11.8156 8.29569C11.7439 8.21536 11.6414 8.16938 11.5338 8.16938H8.13671V5.73202C8.13671 4.99728 8.53232 4.62469 9.31266 4.62469C9.42387 4.62469 11.5338 4.62469 11.5338 4.62469C11.7423 4.62469 11.9113 4.45566 11.9113 4.24721V0.678133C11.9113 0.469609 11.7423 0.300645 11.5338 0.300645H8.47275C8.45116 0.299588 8.40322 0.297852 8.33255 0.297852C7.80143 0.297852 5.95528 0.402114 4.49697 1.74371C2.88117 3.2304 3.10578 5.01049 3.15946 5.31912V8.16931H0.466233C0.257709 8.16931 0.0887451 8.33827 0.0887451 8.5468V12.3854C0.0887451 12.5939 0.257709 12.763 0.466233 12.763Z" fill="#727272"/>
</svg>
