<svg width="18" height="30" viewBox="0 0 18 30" fill="none" xmlns="http://www.w3.org/2000/svg">
<path d="M7.52561 21.1226C5.2032 20.8804 3.10921 20.3084 1.31642 18.9062C1.09397 18.7318 0.8643 18.5636 0.661302 18.3688C-0.123397 17.6151 -0.202463 16.752 0.418456 15.8625C0.949641 15.1013 1.84133 14.8977 2.76816 15.3348C2.94763 15.4195 3.11862 15.5252 3.2824 15.6388C6.62357 17.9345 11.2135 17.9979 14.5672 15.742C14.8995 15.4872 15.2546 15.2795 15.6663 15.1735C16.4667 14.968 17.2131 15.262 17.6426 15.9623C18.1333 16.762 18.127 17.5426 17.5224 18.1636C16.595 19.1155 15.4796 19.8042 14.2403 20.2848C13.0684 20.7392 11.7848 20.9679 10.5144 21.1197C10.7061 21.3284 10.7965 21.431 10.9164 21.5515C12.6414 23.2847 14.3739 25.0106 16.0933 26.7491C16.6791 27.3415 16.8014 28.076 16.4789 28.765C16.1262 29.518 15.3368 30.0134 14.5628 29.9604C14.0724 29.9265 13.6899 29.6824 13.3501 29.3401C12.0484 28.0302 10.7221 26.7444 9.44673 25.4097C9.07556 25.0216 8.89703 25.095 8.56947 25.432C7.25986 26.7802 5.92892 28.1077 4.59013 29.4276C3.98898 30.0203 3.27362 30.127 2.57646 29.7885C1.83537 29.4292 1.3638 28.6727 1.40019 27.9125C1.42529 27.3983 1.67818 27.0055 2.03115 26.6531C3.73829 24.9485 5.44072 23.2395 7.14377 21.532C7.25641 21.4184 7.36152 21.298 7.52561 21.1226Z" fill="#727272"/>
<path d="M8.94025 15.1847C4.79713 15.1706 1.3998 11.736 1.42396 7.58625C1.4478 3.39074 4.84733 0.00972218 9.03124 0.0213311C13.2236 0.0326262 16.5886 3.46227 16.5676 7.7014C16.5463 11.8426 13.1254 15.1992 8.94025 15.1847ZM12.7056 7.59629C12.6984 5.53587 11.0575 3.89557 9.00112 3.89368C6.92752 3.89149 5.27184 5.5616 5.28784 7.64085C5.30321 9.69343 6.95826 11.3221 9.02026 11.3146C11.076 11.3074 12.7125 9.6564 12.7056 7.59629Z" fill="#727272"/>
</svg>
